<svg xmlns="http://www.w3.org/2000/svg" width="746.5" height="384.1" viewBox="0 0 746.5 384.1" fill="none"><g transform="translate(24.000,24.000) scale(1.590909)" fill="none" stroke-linecap="round" stroke-linejoin="round"><circle cx="44" cy="44" r="38" stroke="#7A8A6E" stroke-width="3"/><path d="M32 28 L44 38 L56 28" stroke="#E5905A" stroke-width="5.5"/><line x1="31" y1="44" x2="57" y2="44" stroke="#5A6953" stroke-width="5.5"/><path d="M32 60 L44 50 L56 60" stroke="#7A8A6E" stroke-width="5.5"/></g><g fill="#2E3D26"><path transform="translate(24.000,260.720) scale(0.092000,-0.092000)" d="M366 -18Q269 -18 190.5 21.5Q112 61 66.0 139.0Q20 217 20 330Q20 416 48.0 481.0Q76 546 124.5 590.0Q173 634 236.5 656.0Q300 678 371 678Q428 678 476.0 665.0Q524 652 566 629L570 506H560L510 586Q500 605 488.0 620.5Q476 636 458 644Q443 651 428.5 654.5Q414 658 392 658Q334 658 286.5 627.0Q239 596 210.5 524.5Q182 453 182 329Q182 206 209.0 134.5Q236 63 282.5 32.5Q329 2 387 2Q419 2 438.0 6.5Q457 11 476 20Q495 28 505.0 43.5Q515 59 523 77L567 175H577L574 32Q532 10 480.0 -4.0Q428 -18 366 -18Z"/><path transform="translate(79.476,260.720) scale(0.092000,-0.092000)" d="M273 -15Q197 -15 141.0 16.5Q85 48 54.5 106.0Q24 164 24 242Q24 320 56.5 377.0Q89 434 145.5 465.0Q202 496 273 496Q344 496 400.0 465.5Q456 435 488.5 378.0Q521 321 521 242Q521 163 490.5 105.5Q460 48 404.5 16.5Q349 -15 273 -15ZM273 5Q308 5 329.0 25.0Q350 45 359.5 96.0Q369 147 369 240Q369 334 359.5 385.0Q350 436 329.0 456.0Q308 476 273 476Q238 476 216.5 456.0Q195 436 185.5 385.0Q176 334 176 240Q176 147 185.5 96.0Q195 45 216.5 25.0Q238 5 273 5Z"/><path transform="translate(129.616,260.720) scale(0.092000,-0.092000)" d="M20 0V10L34 14Q53 19 60.5 31.0Q68 43 69 63V376Q69 398 62.0 408.5Q55 419 35 423L20 427V437L191 495L201 485L209 417Q242 450 284.5 473.0Q327 496 373 496Q421 496 450.0 476.5Q479 457 494 416Q533 453 578.5 474.5Q624 496 667 496Q738 496 771.5 462.0Q805 428 805 355V62Q805 23 841 13L852 10V0H621V10L631 13Q650 19 657.5 31.0Q665 43 665 63V369Q665 411 650.0 426.5Q635 442 602 442Q576 442 551.5 430.5Q527 419 500 396Q505 380 506.5 361.0Q508 342 508 321V62Q509 23 544 13L553 10V0H321V10L335 14Q354 20 361.5 31.5Q369 43 369 63V368Q369 408 354.5 425.0Q340 442 305 442Q282 442 259.0 430.5Q236 419 211 397V62Q211 23 246 13L255 10V0Z"/><path transform="translate(209.748,260.720) scale(0.092000,-0.092000)" d="M20 0V10L34 14Q53 19 60.5 31.0Q68 43 69 63V376Q69 398 62.0 408.5Q55 419 35 423L20 427V437L191 495L201 485L209 417Q242 450 284.5 473.0Q327 496 373 496Q421 496 450.0 476.5Q479 457 494 416Q533 453 578.5 474.5Q624 496 667 496Q738 496 771.5 462.0Q805 428 805 355V62Q805 23 841 13L852 10V0H621V10L631 13Q650 19 657.5 31.0Q665 43 665 63V369Q665 411 650.0 426.5Q635 442 602 442Q576 442 551.5 430.5Q527 419 500 396Q505 380 506.5 361.0Q508 342 508 321V62Q509 23 544 13L553 10V0H321V10L335 14Q354 20 361.5 31.5Q369 43 369 63V368Q369 408 354.5 425.0Q340 442 305 442Q282 442 259.0 430.5Q236 419 211 397V62Q211 23 246 13L255 10V0Z"/><path transform="translate(289.880,260.720) scale(0.092000,-0.092000)" d="M273 -15Q197 -15 141.0 16.5Q85 48 54.5 106.0Q24 164 24 242Q24 320 56.5 377.0Q89 434 145.5 465.0Q202 496 273 496Q344 496 400.0 465.5Q456 435 488.5 378.0Q521 321 521 242Q521 163 490.5 105.5Q460 48 404.5 16.5Q349 -15 273 -15ZM273 5Q308 5 329.0 25.0Q350 45 359.5 96.0Q369 147 369 240Q369 334 359.5 385.0Q350 436 329.0 456.0Q308 476 273 476Q238 476 216.5 456.0Q195 436 185.5 385.0Q176 334 176 240Q176 147 185.5 96.0Q195 45 216.5 25.0Q238 5 273 5Z"/><path transform="translate(340.020,260.720) scale(0.092000,-0.092000)" d="M20 0V10L34 14Q69 24 69 63V376Q69 398 62.0 408.5Q55 419 35 423L20 427V437L191 495L201 485L209 425Q244 456 288.0 476.0Q332 496 375 496Q441 496 476.5 460.0Q512 424 512 350V62Q512 23 550 13L559 10V0H323V10L336 14Q371 25 371 63V382Q371 446 307 446Q263 446 211 402V62Q211 23 246 13L255 10V0Z"/><path transform="translate(413.252,260.720) scale(0.092000,-0.092000)" d="M364 -18Q262 -18 184.5 24.5Q107 67 63.5 145.5Q20 224 20 331Q20 435 63.0 513.0Q106 591 187.5 634.5Q269 678 385 678Q438 678 483.5 666.0Q529 654 570 631L574 491H564L508 595Q495 620 484.0 631.0Q473 642 456 648Q440 653 426.5 655.5Q413 658 391 658Q329 658 281.5 625.0Q234 592 208.0 520.0Q182 448 182 331Q182 215 206.5 142.0Q231 69 276.0 35.5Q321 2 380 2Q389 2 397.5 3.5Q406 5 414 7Q433 10 439.0 23.0Q445 36 445 54V252Q445 291 405 300L359 312V322H641V312L627 308Q589 296 589 258V41Q537 12 483.5 -3.0Q430 -18 364 -18Z"/><path transform="translate(473.604,260.720) scale(0.092000,-0.092000)" d="M20 0V10L35 14Q55 20 62.5 32.0Q70 44 70 63V376Q70 398 62.5 408.5Q55 419 35 423L20 427V437L192 495L202 485L211 399V391Q225 419 247.5 442.5Q270 466 297.5 481.0Q325 496 352 496Q390 496 410.0 475.0Q430 454 430 422Q430 388 410.5 369.5Q391 351 364 351Q322 351 290 393L288 395Q278 409 265.0 410.5Q252 412 241 398Q231 389 224.5 376.5Q218 364 212 348V69Q212 29 247 19L279 10V0Z"/><path transform="translate(514.176,260.720) scale(0.092000,-0.092000)" d="M273 -15Q197 -15 141.0 16.5Q85 48 54.5 106.0Q24 164 24 242Q24 320 56.5 377.0Q89 434 145.5 465.0Q202 496 273 496Q344 496 400.0 465.5Q456 435 488.5 378.0Q521 321 521 242Q521 163 490.5 105.5Q460 48 404.5 16.5Q349 -15 273 -15ZM273 5Q308 5 329.0 25.0Q350 45 359.5 96.0Q369 147 369 240Q369 334 359.5 385.0Q350 436 329.0 456.0Q308 476 273 476Q238 476 216.5 456.0Q195 436 185.5 385.0Q176 334 176 240Q176 147 185.5 96.0Q195 45 216.5 25.0Q238 5 273 5Z"/><path transform="translate(564.316,260.720) scale(0.092000,-0.092000)" d="M201 -15Q162 -15 129.5 0.0Q97 15 78.5 48.5Q60 82 61 137L64 394Q64 417 56.0 427.0Q48 437 31 441L19 445V455L198 490L208 480L203 338V97Q203 65 221.5 50.0Q240 35 268 35Q296 35 318.0 43.0Q340 51 362 67L366 393Q366 416 359.0 425.5Q352 435 333 439L323 442V452L498 490L508 480L505 338V67Q505 45 511.0 33.0Q517 21 537 13L547 10V0L372 -10L363 49Q330 22 291.5 3.5Q253 -15 201 -15Z"/><path transform="translate(616.480,260.720) scale(0.092000,-0.092000)" d="M20 0V10L34 14Q69 24 69 63V376Q69 398 62.0 408.5Q55 419 35 423L20 427V437L191 495L201 485L209 425Q244 456 288.0 476.0Q332 496 375 496Q441 496 476.5 460.0Q512 424 512 350V62Q512 23 550 13L559 10V0H323V10L336 14Q371 25 371 63V382Q371 446 307 446Q263 446 211 402V62Q211 23 246 13L255 10V0Z"/><path transform="translate(669.656,260.720) scale(0.092000,-0.092000)" d="M232 -15Q173 -15 126.0 11.5Q79 38 51.5 93.5Q24 149 24 236Q24 324 55.0 381.5Q86 439 137.0 467.5Q188 496 248 496Q283 496 315.0 489.0Q347 482 372 468V598Q372 619 365.5 629.0Q359 639 338 643L319 647V657L501 701L512 692L508 552V63Q508 43 515.0 30.5Q522 18 541 13L550 10V0L379 -11L370 25Q343 7 308.5 -4.0Q274 -15 232 -15ZM290 22Q332 22 367 47V444Q330 468 291 468Q243 468 209.0 412.5Q175 357 175 238Q175 119 207.0 70.5Q239 22 290 22Z"/></g><g fill="#2E3D26"><path transform="translate(24.000,349.040) scale(0.092000,-0.092000)" d="M8 0V10L33 19Q53 27 64.0 38.5Q75 50 82 71L288 662H373L576 67Q584 45 594.0 33.5Q604 22 625 14L637 10V0H383V10L398 15Q419 23 423.5 37.5Q428 52 422 72L375 216H153L105 75Q98 53 100.5 40.0Q103 27 124 19L146 10V0ZM160 236H369L268 547Z"/><path transform="translate(83.800,349.040) scale(0.092000,-0.092000)" d="M23 0V10L35 14Q71 26 71 64V599Q71 619 63.0 629.5Q55 640 35 645L22 648V658L205 701L217 692L213 552V210Q213 173 213.5 136.5Q214 100 214 64Q214 44 222.0 31.5Q230 19 249 13L262 10V0Z"/><path transform="translate(110.112,349.040) scale(0.092000,-0.092000)" d="M210 -15Q146 -15 110.5 17.0Q75 49 75 119V461H6V471L30 475Q61 482 83.5 495.0Q106 508 128 530L210 621H220L217 481H329V461H216V101Q216 66 231.5 48.0Q247 30 271 30Q292 30 308.0 40.5Q324 51 340 69L350 59Q330 25 295.0 5.0Q260 -15 210 -15Z"/><path transform="translate(143.324,349.040) scale(0.092000,-0.092000)" d="M166 -15Q108 -15 68.5 18.0Q29 51 29 113Q29 160 77.0 199.5Q125 239 228 259Q244 262 264.0 265.5Q284 269 306 273V352Q306 420 289.5 447.5Q273 475 238 475Q214 475 200.0 459.5Q186 444 182 406L180 395Q178 352 159.0 332.0Q140 312 112 312Q86 312 69.0 328.0Q52 344 52 371Q52 412 80.5 440.0Q109 468 156.0 482.0Q203 496 258 496Q347 496 395.5 452.5Q444 409 444 311V90Q444 45 486 45H508L517 37Q498 13 475.5 0.0Q453 -13 412 -13Q368 -13 342.5 7.5Q317 28 309 62Q279 30 247.5 7.5Q216 -15 166 -15ZM227 46Q247 46 264.5 55.5Q282 65 306 85V253Q296 251 286.0 249.0Q276 247 263 245Q217 233 189.5 204.5Q162 176 162 128Q162 87 181.0 66.5Q200 46 227 46Z"/><path transform="translate(190.980,349.040) scale(0.092000,-0.092000)" d="M232 -15Q173 -15 126.0 11.5Q79 38 51.5 93.5Q24 149 24 236Q24 324 55.0 381.5Q86 439 137.0 467.5Q188 496 248 496Q283 496 315.0 489.0Q347 482 372 468V598Q372 619 365.5 629.0Q359 639 338 643L319 647V657L501 701L512 692L508 552V63Q508 43 515.0 30.5Q522 18 541 13L550 10V0L379 -11L370 25Q343 7 308.5 -4.0Q274 -15 232 -15ZM290 22Q332 22 367 47V444Q330 468 291 468Q243 468 209.0 412.5Q175 357 175 238Q175 119 207.0 70.5Q239 22 290 22Z"/><path transform="translate(243.788,349.040) scale(0.092000,-0.092000)" d="M271 496Q336 496 382.0 469.5Q428 443 452.5 397.5Q477 352 477 294Q477 283 476.0 271.5Q475 260 472 251H174Q175 143 212.5 95.5Q250 48 324 48Q374 48 405.0 64.0Q436 80 463 111L473 102Q442 47 390.5 16.0Q339 -15 267 -15Q196 -15 141.0 15.5Q86 46 55.0 103.0Q24 160 24 239Q24 321 60.0 378.5Q96 436 152.5 466.0Q209 496 271 496ZM268 476Q239 476 218.5 458.5Q198 441 186.5 396.5Q175 352 174 271H345Q355 380 337.0 428.0Q319 476 268 476Z"/><path transform="translate(290.432,349.040) scale(0.092000,-0.092000)" d="M20 0V10L34 14Q69 24 69 63V376Q69 398 62.0 408.5Q55 419 35 423L20 427V437L191 495L201 485L209 425Q244 456 288.0 476.0Q332 496 375 496Q441 496 476.5 460.0Q512 424 512 350V62Q512 23 550 13L559 10V0H323V10L336 14Q371 25 371 63V382Q371 446 307 446Q263 446 211 402V62Q211 23 246 13L255 10V0Z"/><path transform="translate(343.608,349.040) scale(0.092000,-0.092000)" d="M166 -15Q108 -15 68.5 18.0Q29 51 29 113Q29 160 77.0 199.5Q125 239 228 259Q244 262 264.0 265.5Q284 269 306 273V352Q306 420 289.5 447.5Q273 475 238 475Q214 475 200.0 459.5Q186 444 182 406L180 395Q178 352 159.0 332.0Q140 312 112 312Q86 312 69.0 328.0Q52 344 52 371Q52 412 80.5 440.0Q109 468 156.0 482.0Q203 496 258 496Q347 496 395.5 452.5Q444 409 444 311V90Q444 45 486 45H508L517 37Q498 13 475.5 0.0Q453 -13 412 -13Q368 -13 342.5 7.5Q317 28 309 62Q279 30 247.5 7.5Q216 -15 166 -15ZM227 46Q247 46 264.5 55.5Q282 65 306 85V253Q296 251 286.0 249.0Q276 247 263 245Q217 233 189.5 204.5Q162 176 162 128Q162 87 181.0 66.5Q200 46 227 46Z"/></g></svg>